<?xml version="1.0" encoding="iso-8859-1"?>
<!-- Generator: Adobe Illustrator 18.1.1, SVG Export Plug-In . SVG Version: 6.00 Build 0)  -->
<svg version="1.1" id="Capa_1" xmlns="http://www.w3.org/2000/svg" xmlns:xlink="http://www.w3.org/1999/xlink" x="0px" y="0px"
	 viewBox="0 0 138.575 138.575" style="enable-background:new 0 0 138.575 138.575;" xml:space="preserve">
<g id="_x36__7_">
	<g>
		<path style="fill-rule:evenodd;clip-rule:evenodd;" d="M70.128,15.091h-2.215v20.124h2.215V15.091z M123.88,37.641l-1.565-1.566
			l-14.263,14.212l1.565,1.566L123.88,37.641z M30.426,50.669L16.233,36.386l-1.572,1.559l14.192,14.283L30.426,50.669z
			 M120.885,69.765l8.954-4.413l-0.981-1.984l-8.954,4.413L120.885,69.765z M48.622,39.542l-4.396-8.956l-1.989,0.974l4.396,8.956
			L48.622,39.542z M18.559,68.456l-9.435-3.265l-0.726,2.09l9.435,3.265L18.559,68.456z M95.089,30.644l-2.091-0.729l-3.292,9.416
			l2.091,0.729L95.089,30.644z M115.808,90.292c-0.626-25.246-21.366-45.595-46.788-45.595c-25.422,0-46.161,20.349-46.788,45.595H0
			v2.213h138.575v-2.213H115.808z M24.448,90.292C25.073,66.266,44.82,46.91,69.02,46.91c24.201,0,43.947,19.356,44.573,43.382
			H24.448z M15.448,107.994h107.65v-2.213H15.448V107.994z M29.64,123.484h79.194v-2.213H29.64V123.484z"/>
	</g>
</g>
<g>
</g>
<g>
</g>
<g>
</g>
<g>
</g>
<g>
</g>
<g>
</g>
<g>
</g>
<g>
</g>
<g>
</g>
<g>
</g>
<g>
</g>
<g>
</g>
<g>
</g>
<g>
</g>
<g>
</g>
</svg>
