<?xml version="1.0" encoding="iso-8859-1"?>
<!-- Generator: Adobe Illustrator 19.0.0, SVG Export Plug-In . SVG Version: 6.00 Build 0)  -->
<svg version="1.1" id="Capa_1" xmlns="http://www.w3.org/2000/svg" xmlns:xlink="http://www.w3.org/1999/xlink" x="0px" y="0px"
	 viewBox="0 0 512 512" style="enable-background:new 0 0 512 512;" xml:space="preserve">
<g>
	<g>
		<path d="M135.714,70.413c-17.586-17.586-46.051-17.587-63.636,0c-17.545,17.545-17.545,46.092,0,63.637
			c17.583,17.586,46.049,17.588,63.636,0C153.259,116.505,153.259,87.958,135.714,70.413z M114.502,112.838
			c-5.861,5.861-15.349,5.864-21.211,0c-0.001,0-0.001,0-0.001,0c-5.849-5.849-5.849-15.364,0.001-21.213
			c5.86-5.862,15.348-5.863,21.211,0C120.35,97.474,120.35,106.99,114.502,112.838z"/>
	</g>
</g>
<g>
	<g>
		<path d="M507.5,398.535L297.192,192.413c30.7-41.462,27.396-102.222-9.912-139.53c-29.695-29.696-73.408-37.734-110.603-24.598
			C146.522,0.743,103.087-7.658,67.071,7.504C32.725,21.961,9.026,50.676,2.049,86.283c-6.569,33.529,2.863,67.658,25.28,92.305
			c-13.635,38.107-4.345,81.213,24.616,110.173c29.361,29.363,72.924,37.873,110.516,24.627
			c26.055,25.559,59.081,55.561,77.765,74.203c2.812,2.806,6.622,4.382,10.595,4.382h39.188v44.998
			c0,8.284,6.716,14.999,14.999,14.999h44.998v44.998c0,8.284,6.716,14.999,14.999,14.999h131.995
			c8.284,0,14.999-6.716,14.999-14.999v-87.721C512,405.216,510.379,401.356,507.5,398.535z M482.001,459.667L243.775,221.443
			c-5.857-5.857-15.354-5.857-21.212,0c-5.858,5.858-5.858,15.354,0,21.212l239.314,239.314h-81.873v-44.998
			c0-8.285-6.716-14.999-14.999-14.999h-44.998v-44.998c0-8.284-6.716-14.999-14.999-14.999h-48.031
			c-21.51-21.05-55.421-51.836-80.411-76.835c-4.489-4.492-11.324-5.669-17.057-2.938c-28.598,13.618-64.107,7.595-86.351-14.651
			c-22.554-22.554-28.417-57.129-14.59-86.035c2.89-6.041,1.426-13.266-3.589-17.703c-0.97-0.858-1.991-1.823-3.034-2.866
			c-17.777-17.778-25.425-43.532-20.456-68.893c5.024-25.643,22.235-46.382,47.221-56.9c28.895-12.164,63.06-1.94,83.164,20.764
			c4.438,5.015,11.663,6.479,17.703,3.589c28.639-13.698,64.204-7.699,86.492,14.59c29.435,29.435,29.435,79.17,0,108.605
			c-2.832,2.832-4.413,6.678-4.394,10.682c0.021,4.004,1.641,7.834,4.501,10.637l215.825,211.529V459.667z"/>
	</g>
</g>
<g>
</g>
<g>
</g>
<g>
</g>
<g>
</g>
<g>
</g>
<g>
</g>
<g>
</g>
<g>
</g>
<g>
</g>
<g>
</g>
<g>
</g>
<g>
</g>
<g>
</g>
<g>
</g>
<g>
</g>
</svg>
