<?xml version="1.0" encoding="iso-8859-1"?>
<!-- Generator: Adobe Illustrator 19.0.0, SVG Export Plug-In . SVG Version: 6.00 Build 0)  -->
<svg version="1.1" id="Layer_1" xmlns="http://www.w3.org/2000/svg" xmlns:xlink="http://www.w3.org/1999/xlink" x="0px" y="0px"
	 viewBox="0 0 512 512" style="enable-background:new 0 0 512 512;" xml:space="preserve">
<g>
	<g>
		<g>
			<path d="M410.215,318.656V189.217h-20.369v-31.558c0-73.803-60.043-133.845-133.846-133.845S122.156,83.857,122.156,157.659
				v31.558h-20.37v129.439H0v169.529h512V318.656H410.215z M137.155,157.66c0-65.531,53.314-118.844,118.844-118.844
				c65.531,0,118.845,53.314,118.845,118.844v31.558h-25.129V157.66c0-51.675-42.041-93.715-93.716-93.715
				c-51.675,0-93.715,42.041-93.715,93.715v31.558h-25.129V157.66z M334.715,189.217H177.285v-31.558
				c0-43.404,35.311-78.715,78.715-78.715s78.716,35.311,78.716,78.715V189.217z M116.786,204.218h5.369h55.13h157.431h55.13h5.368
				v114.438H294.812c0.983-3.514,1.51-7.163,1.51-10.878c0-22.234-18.089-40.322-40.322-40.322
				c-22.234,0-40.321,18.088-40.321,40.322c0,3.715,0.527,7.364,1.51,10.878H116.786V204.218z M281.32,307.778
				c0,3.802-0.839,7.502-2.448,10.878h-45.746c-1.609-3.376-2.448-7.076-2.448-10.878c0-13.963,11.359-25.321,25.321-25.321
				C269.962,282.457,281.32,293.815,281.32,307.778z M497,473.186L497,473.186H15.001V333.657h86.785h123.039h62.352h123.039H497
				V473.186z"/>
			<polygon points="126.787,235.713 141.787,235.713 141.787,229.219 177.54,229.219 177.54,214.218 126.787,214.218 			"/>
			<rect x="194.917" y="214.218" width="14.962" height="15.001"/>
			<polygon points="370.214,251.157 385.214,251.157 385.214,214.218 343.562,214.218 343.562,229.219 370.214,229.219 			"/>
			<rect x="370.214" y="269.01" width="15.001" height="14.479"/>
			<polygon points="126.115,378.628 115.507,368.021 97.497,386.033 97.497,360.561 82.496,360.561 82.496,386.032 64.484,368.021 
				53.878,378.628 71.889,396.639 46.418,396.639 46.418,411.64 71.889,411.64 53.878,429.65 64.484,440.257 82.496,422.246 
				82.496,447.718 97.497,447.718 97.497,422.246 115.507,440.257 126.115,429.65 108.103,411.64 133.575,411.64 133.575,396.639 
				108.103,396.639 			"/>
			<polygon points="236.784,378.628 226.176,368.021 208.166,386.032 208.166,360.561 193.165,360.561 193.165,386.032 
				175.154,368.021 164.547,378.628 182.559,396.639 157.087,396.639 157.087,411.64 182.559,411.64 164.547,429.65 
				175.154,440.257 193.165,422.246 193.165,447.718 208.166,447.718 208.166,422.246 226.176,440.257 236.784,429.65 
				218.773,411.64 244.244,411.64 244.244,396.639 218.773,396.639 			"/>
			<polygon points="347.454,378.628 336.847,368.021 318.836,386.032 318.836,360.561 303.835,360.561 303.835,386.032 
				285.824,368.021 275.216,378.628 293.227,396.639 267.757,396.639 267.757,411.64 293.227,411.64 275.216,429.65 
				285.824,440.257 303.835,422.246 303.835,447.718 318.836,447.718 318.836,422.247 336.847,440.257 347.454,429.65 
				329.442,411.64 354.913,411.64 354.913,396.639 329.442,396.639 			"/>
			<rect x="378.424" y="433.387" width="87.153" height="15.001"/>
		</g>
	</g>
</g>
<g>
</g>
<g>
</g>
<g>
</g>
<g>
</g>
<g>
</g>
<g>
</g>
<g>
</g>
<g>
</g>
<g>
</g>
<g>
</g>
<g>
</g>
<g>
</g>
<g>
</g>
<g>
</g>
<g>
</g>
</svg>
