<?xml version="1.0" encoding="iso-8859-1"?>
<!-- Generator: Adobe Illustrator 19.0.0, SVG Export Plug-In . SVG Version: 6.00 Build 0)  -->
<svg version="1.1" id="Capa_1" xmlns="http://www.w3.org/2000/svg" xmlns:xlink="http://www.w3.org/1999/xlink" x="0px" y="0px"
	 viewBox="0 0 460 460" style="enable-background:new 0 0 460 460;" xml:space="preserve">
<g>
	<g>
		<g>
			<path d="M402.8,104.4c-31.6,0-57.2,25.6-57.2,57.2c0,31.6,25.6,57.2,57.2,57.2c31.6,0,57.2-25.6,57.2-57.2
				S434.4,104.4,402.8,104.4z M402.8,206.4c-24.8,0-44.8-20-44.8-44.4c0-24.4,20-44.4,44.4-44.4c14,0,26.4,6.4,34.4,16.4
				c-0.4,0-0.4,0.4-0.8,0.4l-42.8,36.4L378.8,150c-2-2.8-6-3.6-8.8-1.6s-3.6,6-1.6,8.8l18.4,26.8c1.2,1.6,2.8,2.4,4.4,2.8
				c0.4,0,0.4,0,0.8,0c1.6,0,3.2-0.4,4-1.6l47.2-40c2,5.2,3.2,10.8,3.2,16.8C447.2,186.4,427.2,206.4,402.8,206.4z"/>
			<path d="M341.2,219.6H68c-37.6,0-68,30.4-68,68c0,37.6,30.4,68,68,68h273.2c37.6,0,68-30.4,68-68
				C409.2,250,378.8,219.6,341.2,219.6z M341.2,342.8H68c-30.4,0-54.8-24.8-54.8-54.8c0-30.4,24.8-54.8,54.8-54.8h273.2
				c30.4,0,54.8,24.8,54.8,54.8S371.6,342.8,341.2,342.8z"/>
			<path d="M122,281.2h-7.6l9.2-8.8c2.4-2.4,2.4-6.4,0-9.2c-2.4-2.4-6.4-2.8-9.2-0.4l-10,9.6v-8.8c0-3.6-2.8-6.4-6.4-6.4
				c-3.6,0-6.4,2.8-6.4,6.4v7.6l-8.8-9.2c-2.4-2.4-6.4-2.8-9.2-0.4c-2.4,2.4-2.8,6.4-0.4,9.2l9.6,10H74c-3.6,0-6.4,2.8-6.4,6.4
				c0,3.6,2.8,6.4,6.4,6.4h8l-9.2,8.8c-2.4,2.4-2.8,6.4-0.4,9.2c1.2,1.2,2.8,2,4.8,2c1.6,0,3.2-0.4,4.4-1.6l10-9.6v8.8
				c0,3.6,2.8,6.4,6.4,6.4c3.6,0,6.4-2.8,6.4-6.4v-7.6l8.8,9.2c1.2,1.2,2.8,2,4.8,2c1.6,0,3.2-0.4,4.4-1.6c2.4-2.4,2.8-6.4,0.4-9.2
				l-9.6-10h8.8c3.6,0,6.4-2.8,6.4-6.4C128.4,284,125.6,281.2,122,281.2z"/>
			<path d="M192.8,281.2h-7.6l9.2-8.8c2.4-2.4,2.8-6.4,0.4-9.2c-2.4-2.4-6.4-2.8-9.2-0.4l-10,9.6v-8.8c0-3.6-2.8-6.4-6.4-6.4
				s-6.4,2.8-6.4,6.4v7.6l-8.8-8.8c-2.4-2.4-6.4-2.8-9.2-0.4c-2.4,2.4-2.8,6.4-0.4,9.2l9.6,10h-8.8c-3.6,0-6.4,2.8-6.4,6.4
				c0,3.6,2.8,6.4,6.4,6.4h7.6l-9.2,8.8c-2.4,2.4-2.8,6.4-0.4,9.2c1.2,1.2,2.8,2,4.8,2c1.6,0,3.2-0.4,4.4-1.6l10-9.6v8.8
				c0,3.6,2.8,6.4,6.4,6.4c3.6,0,6.4-2.8,6.4-6.4V304l8.8,9.2c1.2,1.2,2.8,2,4.8,2c1.6,0,3.2-0.4,4.4-1.6c2.4-2.4,2.8-6.4,0.4-9.2
				L184,294h8.8c3.6,0,6.4-2.8,6.4-6.4C199.2,284,196.4,281.2,192.8,281.2z"/>
			<path d="M263.6,281.2H256l9.2-8.8c2.4-2.4,2.8-6.4,0.4-9.2c-2.4-2.4-6.4-2.8-9.2-0.4l-10,9.6v-8.8c0-3.6-2.8-6.4-6.4-6.4
				c-3.6,0-6.4,2.8-6.4,6.4v7.6l-8.8-9.2c-2.4-2.4-6.4-2.8-9.2-0.4c-2.4,2.4-2.8,6.4-0.4,9.2l9.6,10H216c-3.6,0-6.4,2.8-6.4,6.4
				c0,3.6,2.8,6.4,6.4,6.4h7.6l-9.2,8.8c-2.4,2.4-2.8,6.4-0.4,9.2c1.2,1.2,2.8,2,4.8,2c1.6,0,3.2-0.4,4.4-1.6l10-9.6v8.8
				c0,3.6,2.8,6.4,6.4,6.4c3.6,0,6.4-2.8,6.4-6.4v-7.6l8.8,9.2c1.2,1.2,2.8,2,4.8,2c1.6,0,3.2-0.4,4.4-1.6c2.4-2.4,2.8-6.4,0.4-9.2
				l-9.2-10h8.8c3.6,0,6.4-2.8,6.4-6.4C270.4,284,267.2,281.2,263.6,281.2z"/>
			<path d="M334.8,281.2h-7.6l9.2-8.8c2.4-2.4,2.8-6.4,0.4-9.2c-2.4-2.4-6.4-2.8-9.2-0.4l-10,9.6v-8.8c0-3.6-2.8-6.4-6.4-6.4
				c-3.6,0-6.4,2.8-6.4,6.4v7.6L296,262c-2.4-2.4-6.4-2.8-9.2-0.4c-2.4,2.4-2.8,6.4-0.4,9.2l9.6,10h-8.8c-3.6,0-6.4,2.8-6.4,6.4
				c0,3.6,2.8,6.4,6.4,6.4h7.6l-9.2,8.8c-2.4,2.4-2.8,6.4-0.4,9.2c1.2,1.2,2.8,2,4.8,2c1.6,0,3.2-0.4,4.4-1.6l10-9.6v8.8
				c0,3.6,2.8,6.4,6.4,6.4c3.6,0,6.4-2.8,6.4-6.4v-7.6l8.8,9.2c1.2,1.2,2.8,2,4.8,2c1.6,0,3.2-0.4,4.4-1.6c2.4-2.4,2.8-6.4,0.4-9.2
				l-9.6-10h8.8c3.6,0,6.4-2.8,6.4-6.4C341.2,284,338.4,281.2,334.8,281.2z"/>
		</g>
	</g>
</g>
<g>
</g>
<g>
</g>
<g>
</g>
<g>
</g>
<g>
</g>
<g>
</g>
<g>
</g>
<g>
</g>
<g>
</g>
<g>
</g>
<g>
</g>
<g>
</g>
<g>
</g>
<g>
</g>
<g>
</g>
</svg>
