<?xml version="1.0" encoding="iso-8859-1"?>
<!-- Generator: Adobe Illustrator 18.0.0, SVG Export Plug-In . SVG Version: 6.00 Build 0)  -->
<!DOCTYPE svg PUBLIC "-//W3C//DTD SVG 1.1//EN" "http://www.w3.org/Graphics/SVG/1.1/DTD/svg11.dtd">
<svg version="1.1" id="Capa_1" xmlns="http://www.w3.org/2000/svg" xmlns:xlink="http://www.w3.org/1999/xlink" x="0px" y="0px"
	 viewBox="0 0 60 60" style="enable-background:new 0 0 60 60;" xml:space="preserve">
<g>
	<path d="M30,0C13.458,0,0,13.458,0,30s13.458,30,30,30c7.289,0,11.283-1.173,12.57-3.69c1.526-2.983-1.185-6.738-3.806-10.369
		c-2.134-2.955-4.34-6.012-3.075-7.217c2.006-1.91,6.394-1.822,10.635-1.733c4.623,0.089,9.401,0.19,11.928-2.284
		C59.412,33.569,60,31.986,60,30C60,13.458,46.542,0,30,0z M56.853,33.277c-1.926,1.888-6.277,1.802-10.488,1.713
		c-4.646-0.097-9.452-0.193-12.054,2.286c-2.528,2.408,0.197,6.184,2.833,9.835c2.163,2.997,4.615,6.394,3.646,8.288
		C40.184,56.586,37.818,58,30,58C14.561,58,2,45.439,2,30S14.561,2,30,2s28,12.561,28,28C58,31.448,57.625,32.521,56.853,33.277z"/>
	<path d="M28.866,27.079c-2.996,0.447-5.439,2.958-5.812,5.97c-0.377,3.037,1.239,5.924,4.021,7.183
		c0.281,0.127,0.576,0.189,0.868,0.189c0.476,0,0.942-0.165,1.321-0.484c0.611-0.514,0.866-1.317,0.665-2.099
		c-0.233-0.902-0.291-2.188,0.76-3.188c0.301-0.287,1.45-0.628,3.696-0.642c0.693-0.005,1.334-0.357,1.712-0.943
		c0.377-0.584,0.435-1.312,0.153-1.942C34.99,28.28,31.956,26.624,28.866,27.079z M29.311,33.202
		c-1.368,1.303-1.835,3.127-1.332,5.204c-0.022,0.018-0.042,0.02-0.078,0.003c-1.979-0.896-3.129-2.951-2.861-5.115
		c0.265-2.138,1.998-3.919,4.122-4.236C29.417,29.02,29.672,29,29.923,29c1.941,0,3.688,1.122,4.451,3.008
		C30.538,32.031,29.613,32.912,29.311,33.202z"/>
	<path d="M30,14c2.757,0,5-2.243,5-5s-2.243-5-5-5s-5,2.243-5,5S27.243,14,30,14z M30,6c1.654,0,3,1.346,3,3s-1.346,3-3,3
		s-3-1.346-3-3S28.346,6,30,6z"/>
	<path d="M25,51c0,2.757,2.243,5,5,5s5-2.243,5-5s-2.243-5-5-5S25,48.243,25,51z M33,51c0,1.654-1.346,3-3,3s-3-1.346-3-3
		s1.346-3,3-3S33,49.346,33,51z"/>
	<path d="M46,28c0,2.757,2.243,5,5,5s5-2.243,5-5s-2.243-5-5-5S46,25.243,46,28z M51,25c1.654,0,3,1.346,3,3s-1.346,3-3,3
		s-3-1.346-3-3S49.346,25,51,25z"/>
	<path d="M14,30c0-2.757-2.243-5-5-5s-5,2.243-5,5s2.243,5,5,5S14,32.757,14,30z M9,33c-1.654,0-3-1.346-3-3s1.346-3,3-3
		s3,1.346,3,3S10.654,33,9,33z"/>
	<path d="M11.615,11.615c-1.949,1.949-1.949,5.122,0,7.071c0.975,0.975,2.255,1.462,3.535,1.462c1.281,0,2.562-0.487,3.536-1.462
		c1.948-1.949,1.948-5.122,0-7.071C16.737,9.665,13.564,9.667,11.615,11.615z M17.272,17.272c-1.169,1.167-3.072,1.169-4.243,0
		c-1.17-1.17-1.17-3.073,0-4.243c0.585-0.585,1.354-0.877,2.121-0.877c0.769,0,1.537,0.292,2.122,0.877
		C18.441,14.199,18.441,16.103,17.272,17.272z"/>
	<path d="M46.535,11.615C45.592,10.671,44.336,10.15,43,10.15s-2.592,0.521-3.535,1.465c-1.949,1.949-1.949,5.122,0,7.071
		c0.975,0.975,2.255,1.462,3.535,1.462s2.561-0.487,3.535-1.462C48.484,16.737,48.484,13.564,46.535,11.615z M45.121,17.272
		c-1.133,1.133-3.109,1.133-4.242,0c-1.17-1.17-1.17-3.073,0-4.243c0.566-0.566,1.319-0.879,2.121-0.879s1.555,0.313,2.121,0.879
		C46.291,14.199,46.291,16.103,45.121,17.272z"/>
	<path d="M11.615,41.313c-1.949,1.949-1.949,5.122,0,7.071c0.975,0.975,2.255,1.462,3.536,1.462c1.28,0,2.561-0.487,3.535-1.462
		c1.948-1.949,1.948-5.122,0-7.071C16.737,39.364,13.564,39.364,11.615,41.313z M17.272,46.971c-1.169,1.169-3.072,1.171-4.243,0
		c-1.17-1.17-1.17-3.073,0-4.243c0.585-0.584,1.354-0.877,2.122-0.877c0.768,0,1.536,0.293,2.121,0.877
		C18.441,43.897,18.441,45.801,17.272,46.971z"/>
</g>
<g>
</g>
<g>
</g>
<g>
</g>
<g>
</g>
<g>
</g>
<g>
</g>
<g>
</g>
<g>
</g>
<g>
</g>
<g>
</g>
<g>
</g>
<g>
</g>
<g>
</g>
<g>
</g>
<g>
</g>
</svg>
