<?xml version="1.0" encoding="iso-8859-1"?>
<!-- Generator: Adobe Illustrator 16.0.0, SVG Export Plug-In . SVG Version: 6.00 Build 0)  -->
<!DOCTYPE svg PUBLIC "-//W3C//DTD SVG 1.1//EN" "http://www.w3.org/Graphics/SVG/1.1/DTD/svg11.dtd">
<svg version="1.1" id="Capa_1" xmlns="http://www.w3.org/2000/svg" xmlns:xlink="http://www.w3.org/1999/xlink" x="0px" y="0px"
	 width="58.982px" height="58.982px" viewBox="0 0 58.982 58.982" style="enable-background:new 0 0 58.982 58.982;"
	 xml:space="preserve">
<g>
	<g id="_x33_2">
		<g>
			<path d="M38.542,24.475c-1.397,0.48-13.73,4.799-16.44,7.982c-1.455,1.713-2.158,3.891-1.979,6.133
				c0.18,2.24,1.221,4.279,2.93,5.736c1.519,1.295,3.454,2.01,5.447,2.01c2.469,0,4.802-1.08,6.402-2.959
				c2.707-3.188,4.998-16.07,5.25-17.529c0.074-0.429-0.082-0.863-0.414-1.147C39.407,24.418,38.954,24.331,38.542,24.475z
				 M33.029,41.78c-2.047,2.407-5.979,2.728-8.385,0.671c-1.209-1.031-1.946-2.471-2.072-4.058c-0.127-1.587,0.37-3.128,1.399-4.339
				c1.52-1.786,8.222-4.652,13.375-6.542C36.318,32.802,34.533,40.012,33.029,41.78z M29.49,5.27C13.229,5.27,0,18.709,0,35.23
				c0,6.301,2.059,12.682,5.799,17.962c0.23,0.327,0.604,0.521,1.002,0.521H52.18c0.398,0,0.772-0.192,1.002-0.521
				c3.741-5.28,5.801-11.71,5.801-18.103C58.98,18.647,45.752,5.27,29.49,5.27z M51.537,51.25H7.444
				c-3.22-4.766-4.987-10.43-4.987-16.021c0-15.162,12.127-27.5,27.033-27.5s27.033,12.272,27.033,27.36
				C56.523,40.769,54.757,46.483,51.537,51.25z M29.49,12.352c-11.419,0-20.709,9.396-20.709,20.945c0,0.681,0.55,1.23,1.229,1.23
				c0.68,0,1.229-0.551,1.229-1.23c0-10.192,8.188-18.484,18.252-18.484c10.063,0,18.252,8.263,18.252,18.417
				c0,0.681,0.55,1.231,1.229,1.231c0.678,0,1.229-0.551,1.229-1.231C50.2,21.717,40.91,12.352,29.49,12.352z"/>
		</g>
	</g>
</g>
<g>
</g>
<g>
</g>
<g>
</g>
<g>
</g>
<g>
</g>
<g>
</g>
<g>
</g>
<g>
</g>
<g>
</g>
<g>
</g>
<g>
</g>
<g>
</g>
<g>
</g>
<g>
</g>
<g>
</g>
</svg>
