<?xml version="1.0" encoding="iso-8859-1"?>
<!-- Generator: Adobe Illustrator 19.0.0, SVG Export Plug-In . SVG Version: 6.00 Build 0)  -->
<svg version="1.1" id="Capa_1" xmlns="http://www.w3.org/2000/svg" xmlns:xlink="http://www.w3.org/1999/xlink" x="0px" y="0px"
	 viewBox="0 0 496 496" style="enable-background:new 0 0 496 496;" xml:space="preserve">
<g>
	<g>
		<g>
			<path d="M328,321.472V288c0-44.112-35.888-80-80-80s-80,35.888-80,80v33.472c-9.288,3.312-16,12.112-16,22.528v128
				c0,13.232,10.768,24,24,24h144c13.232,0,24-10.768,24-24V344C344,333.584,337.288,324.784,328,321.472z M184,288
				c0-35.288,28.712-64,64-64c35.288,0,64,28.712,64,64v32h-16v-32c0-26.472-21.528-48-48-48s-48,21.528-48,48v32h-16V288z M280,288
				v32h-64v-32c0-17.648,14.352-32,32-32S280,270.352,280,288z M328,472c0,4.416-3.584,8-8,8H176c-4.416,0-8-3.584-8-8V344
				c0-4.416,3.584-8,8-8h144c4.416,0,8,3.584,8,8V472z"/>
			<path d="M248,352c-22.056,0-40,17.944-40,40c0,12.504,6.032,24.32,16,31.832V464h48v-40.168c9.968-7.512,16-19.328,16-31.832
				C288,369.944,270.056,352,248,352z M259.976,412.648L256,414.96V448h-16v-33.04l-3.976-2.312
				C228.496,408.264,224,400.544,224,392c0-13.232,10.768-24,24-24s24,10.768,24,24C272,400.544,267.504,408.264,259.976,412.648z"
				/>
			<path d="M400,0H96C43.064,0,0,43.064,0,96s43.064,96,96,96h304c52.936,0,96-43.064,96-96C496,43.064,452.936,0,400,0z M400,176
				H96c-44.112,0-80-35.888-80-80s35.888-80,80-80h304c44.112,0,80,35.888,80,80S444.112,176,400,176z"/>
			<rect x="144" y="64" width="16" height="16"/>
			<rect x="120" y="88" width="16" height="16"/>
			<rect x="144" y="112" width="16" height="16"/>
			<rect x="168" y="88" width="16" height="16"/>
			<rect x="240" y="64" width="16" height="16"/>
			<rect x="216" y="88" width="16" height="16"/>
			<rect x="240" y="112" width="16" height="16"/>
			<rect x="264" y="88" width="16" height="16"/>
			<rect x="336" y="64" width="16" height="16"/>
			<rect x="312" y="88" width="16" height="16"/>
			<rect x="336" y="112" width="16" height="16"/>
			<rect x="360" y="88" width="16" height="16"/>
			<path d="M96,48h304c23.664,0,44.064,17.688,47.44,41.144l15.84-2.28C458.768,55.584,431.56,32,400,32H96
				c-31.56,0-58.768,23.584-63.28,54.856l15.84,2.28C51.936,65.688,72.336,48,96,48z"/>
			<path d="M400,144H96c-23.664,0-44.064-17.688-47.44-41.144l-15.84,2.28C37.232,136.416,64.44,160,96,160h304
				c31.56,0,58.768-23.584,63.28-54.856l-15.84-2.28C444.064,126.312,423.664,144,400,144z"/>
		</g>
	</g>
</g>
<g>
</g>
<g>
</g>
<g>
</g>
<g>
</g>
<g>
</g>
<g>
</g>
<g>
</g>
<g>
</g>
<g>
</g>
<g>
</g>
<g>
</g>
<g>
</g>
<g>
</g>
<g>
</g>
<g>
</g>
</svg>
