<?xml version="1.0" encoding="iso-8859-1"?>
<!-- Generator: Adobe Illustrator 19.0.0, SVG Export Plug-In . SVG Version: 6.00 Build 0)  -->
<svg version="1.1" id="Capa_1" xmlns="http://www.w3.org/2000/svg" xmlns:xlink="http://www.w3.org/1999/xlink" x="0px" y="0px"
	 viewBox="0 0 512 512" style="enable-background:new 0 0 512 512;" xml:space="preserve">
<g>
	<g>
		<path d="M417,76H95c-52.383,0-95,42.617-95,95s42.617,95,95,95h322c52.383,0,95-42.617,95-95S469.383,76,417,76z M417,236H95
			c-35.841,0-65-29.159-65-65s29.159-65,65-65h322c35.841,0,65,29.159,65,65S452.841,236,417,236z"/>
	</g>
</g>
<g>
	<g>
		<path d="M306,171c0-7.919-6.141-14.389-13.918-14.945c5.106-5.893,4.874-14.81-0.727-20.41c-5.599-5.599-14.517-5.832-20.41-0.726
			C270.389,127.141,263.919,121,256,121s-14.389,6.141-14.945,13.919c-5.893-5.106-14.811-4.874-20.41,0.726
			c-5.6,5.6-5.833,14.517-0.727,20.41C212.141,156.611,206,163.081,206,171s6.141,14.389,13.918,14.945
			c-5.106,5.893-4.874,14.81,0.727,20.41c5.559,5.56,14.453,5.887,20.41,0.726C241.611,214.859,248.081,221,256,221
			s14.389-6.141,14.945-13.919c5.956,5.161,14.851,4.834,20.41-0.726c5.6-5.6,5.833-14.517,0.727-20.41
			C299.859,185.389,306,178.919,306,171z"/>
	</g>
</g>
<g>
	<g>
		<path d="M176,171c0-7.919-6.141-14.389-13.918-14.945c5.106-5.893,4.874-14.81-0.727-20.41c-5.599-5.599-14.517-5.832-20.41-0.726
			C140.389,127.141,133.919,121,126,121s-14.389,6.141-14.945,13.919c-5.893-5.106-14.811-4.874-20.41,0.726
			c-5.6,5.6-5.833,14.517-0.727,20.41C82.141,156.611,76,163.081,76,171s6.141,14.389,13.918,14.945
			c-5.106,5.893-4.874,14.81,0.727,20.41c5.559,5.56,14.453,5.887,20.41,0.726C111.611,214.859,118.081,221,126,221
			s14.389-6.141,14.945-13.919c5.956,5.161,14.851,4.834,20.41-0.726c5.6-5.6,5.833-14.517,0.727-20.41
			C169.859,185.389,176,178.919,176,171z"/>
	</g>
</g>
<g>
	<g>
		<path d="M436,171c0-7.919-6.141-14.389-13.918-14.945c5.106-5.893,4.874-14.81-0.727-20.41c-5.599-5.599-14.517-5.832-20.41-0.726
			C400.389,127.141,393.919,121,386,121s-14.389,6.141-14.945,13.919c-5.893-5.106-14.811-4.874-20.41,0.726
			c-5.6,5.6-5.833,14.517-0.727,20.41C342.141,156.611,336,163.081,336,171s6.141,14.389,13.918,14.945
			c-5.106,5.893-4.874,14.81,0.727,20.41c5.559,5.56,14.453,5.887,20.41,0.726C371.611,214.859,378.081,221,386,221
			s14.389-6.141,14.945-13.919c5.956,5.161,14.851,4.834,20.41-0.726c5.6-5.6,5.833-14.517,0.727-20.41
			C429.859,185.389,436,178.919,436,171z"/>
	</g>
</g>
<g>
	<g>
		<path d="M376.607,365.394L372.213,361l4.394-4.394c5.858-5.857,5.858-15.355-0.001-21.212c-5.857-5.858-15.355-5.858-21.213,0
			L351,339.787l-4.394-4.394c-5.857-5.858-15.355-5.858-21.213,0c-5.858,5.858-5.858,15.355,0,21.213l4.394,4.394l-4.394,4.394
			c-5.858,5.858-5.858,15.355,0,21.213c5.857,5.858,15.356,5.858,21.213,0l4.394-4.394l4.394,4.394
			c5.857,5.858,15.356,5.858,21.213,0C382.465,380.749,382.465,371.252,376.607,365.394z"/>
	</g>
</g>
<g>
	<g>
		<path d="M161,286c-41.355,0-75,33.645-75,75c0,41.355,33.645,75,75,75s75-33.645,75-75C236,319.866,202.548,286,161,286z M161,406
			c-24.813,0-45-20.187-45-45s20.187-45,45-45c5.484,0,10.739,0.989,15.603,2.793l-19.59,32.901l-2.507-4.209
			c-4.237-7.117-13.44-9.454-20.563-5.214c-7.117,4.238-9.452,13.445-5.213,20.563l15.395,25.853
			c2.704,4.542,7.601,7.326,12.888,7.326s10.184-2.783,12.888-7.326l29.966-50.325C203.758,345.017,206,352.75,206,361
			C206,385.813,185.813,406,161,406z"/>
	</g>
</g>
<g>
	<g>
		<path d="M351,286c-41.355,0-75,33.645-75,75c0,41.355,33.645,75,75,75c41.355,0,75-33.645,75-75C426,319.645,392.355,286,351,286z
			 M351,406c-24.813,0-45-20.187-45-45s20.187-45,45-45s45,20.187,45,45S375.813,406,351,406z"/>
	</g>
</g>
<g>
</g>
<g>
</g>
<g>
</g>
<g>
</g>
<g>
</g>
<g>
</g>
<g>
</g>
<g>
</g>
<g>
</g>
<g>
</g>
<g>
</g>
<g>
</g>
<g>
</g>
<g>
</g>
<g>
</g>
</svg>
