<?xml version="1.0" encoding="iso-8859-1"?>
<!-- Generator: Adobe Illustrator 16.0.0, SVG Export Plug-In . SVG Version: 6.00 Build 0)  -->
<!DOCTYPE svg PUBLIC "-//W3C//DTD SVG 1.1//EN" "http://www.w3.org/Graphics/SVG/1.1/DTD/svg11.dtd">
<svg version="1.1" id="Capa_1" xmlns="http://www.w3.org/2000/svg" xmlns:xlink="http://www.w3.org/1999/xlink" x="0px" y="0px"
	 width="64.526px" height="64.526px" viewBox="0 0 64.526 64.526" style="enable-background:new 0 0 64.526 64.526;"
	 xml:space="preserve">
<g>
	<g id="_x31_0_1_">
		<g>
			<path d="M50.235,41.284C44.571,23.062,35.372,3.16,33.505,1.003c-0.465-0.539-1.392-0.539-1.857,0
				C29.843,3.09,20.642,22.522,14.78,40.379C5.564,49.285,0.731,56.538,0.009,62.549c-0.043,0.349,0.067,0.7,0.3,0.963
				c0.232,0.265,0.569,0.415,0.919,0.415h62.068c0.352,0,0.686-0.148,0.917-0.411c0.233-0.261,0.345-0.608,0.306-0.958
				C63.63,54.704,55.65,46.671,50.235,41.284z M2.694,61.465c1.227-5.196,5.931-11.754,14.011-19.523
				c0.145-0.141,0.255-0.313,0.317-0.506C22.191,25.598,29.745,9.214,32.574,4.113c2.839,5.185,10.399,21.995,15.405,38.191
				c0.061,0.192,0.166,0.367,0.308,0.509c4.841,4.816,11.997,11.938,13.55,18.652H2.694z M32.528,39.501
				c-4.459,0-8.088,3.634-8.088,8.1c0,4.465,3.629,8.1,8.088,8.1c4.459,0,8.086-3.635,8.086-8.1
				C40.614,43.135,36.987,39.501,32.528,39.501z M32.528,53.239c-3.105,0-5.63-2.528-5.63-5.638c0-3.108,2.524-5.638,5.63-5.638
				c3.104,0,5.628,2.529,5.628,5.638C38.156,50.71,35.632,53.239,32.528,53.239z M32.528,35.771c3.183,0,5.772-2.594,5.772-5.782
				s-2.59-5.781-5.772-5.781c-3.182,0-5.771,2.594-5.771,5.781C26.757,33.177,29.346,35.771,32.528,35.771z M32.528,26.669
				c1.827,0,3.314,1.489,3.314,3.319c0,1.831-1.487,3.32-3.314,3.32c-1.826,0-3.314-1.489-3.314-3.32
				C29.214,28.159,30.702,26.669,32.528,26.669z"/>
		</g>
	</g>
</g>
<g>
</g>
<g>
</g>
<g>
</g>
<g>
</g>
<g>
</g>
<g>
</g>
<g>
</g>
<g>
</g>
<g>
</g>
<g>
</g>
<g>
</g>
<g>
</g>
<g>
</g>
<g>
</g>
<g>
</g>
</svg>
